# xmcd CD database file generated by LOLA_Freedb v0.9beta0
# 
# Track frame offsets:
#      150
#      13456
#      25147
#      35738
#      46350
#      61399
#      73701
#      85275
#      95685
#      105374
#      121360
#      136494
#      149732
#      168068
#      178742
#      189203
#      199463
#      214377
#      234658
#      246338
# 
# Disc length: 3438 seconds
# 
# Revision: 0 
# Processed by: cddbd v1.5.1PL2 Copyright (c) Steve Scherf et al.
# Submitted via: LOLA_Freedb v0.9beta0
# 
DISCID=320d6c14
DTITLE=Kenny Rogers - RealGold 40  Disc 2
DYEAR=2003
DGENRE=
TTITLE0=Kenny Rogers - Shine On Ruby Mountain
TTITLE1=Kenny Rogers - Elvira
TTITLE2=Kenny Rogers - Last Few Threads Of Love
TTITLE3=Kenny Rogers - Goodtime Liberator
TTITLE4=Kenny Rogers - Just Dropped In
TTITLE5=Kenny Rogers - Shadow In The Corner Of Your Mind
TTITLE6=Kenny Rogers - Girl Get A Hold Of Yourself
TTITLE7=Kenny Rogers - Ticket Of Nowhere
TTITLE8=Kenny Rogers - Once Again She`s All Alone
TTITLE9=Kenny Rogers - The Way It Used To Be
TTITLE10=Kenny Rogers - For The Good Times
TTITLE11=Kenny Rogers - Sleep Comes Easy
TTITLE12=Kenny Rogers - The King Of Oak Street
TTITLE13=Kenny Rogers - She Even Woke Me Up To Say Goodbye
TTITLE14=Kenny Rogers - Trying Just As Hard
TTITLE15=Kenny Rogers - A New Design
TTITLE16=Kenny Rogers - Heed The Call
TTITLE17=Kenny Rogers - Lay It Down
TTITLE18=Kenny Rogers - I Just Wanna Give My Love To You
TTITLE19=Kenny Rogers - Calico Silver
EXTD=
EXTT0=
EXTT1=
EXTT2=
EXTT3=
EXTT4=
EXTT5=
EXTT6=
EXTT7=
EXTT8=
EXTT9=
EXTT10=
EXTT11=
EXTT12=
EXTT13=
EXTT14=
EXTT15=
EXTT16=
EXTT17=
EXTT18=
EXTT19=
PLAYORDER=
